<svg aria-hidden="true" style="position: absolute; width: 0; height: 0; overflow: hidden;" version="1.1" xmlns="http://www.w3.org/2000/svg" xmlns:xlink="http://www.w3.org/1999/xlink">
<defs>
<symbol id="icon-social1" viewBox="0 0 32 32">
<path fill="#103488" style="fill: var(--color1, #103488)" d="M23.901 32h-15.801c-4.474 0-8.099-3.626-8.099-8.1v-15.8c0-4.474 3.626-8.1 8.099-8.1h15.801c4.474 0 8.099 3.626 8.099 8.1v15.8c0 4.474-3.626 8.1-8.099 8.1z"></path>
<path fill="#fff" style="fill: var(--color2, #fff)" d="M16.001 6.56c-0.914 0-2.641 2.94-2.846 8.361h5.693c-0.206-5.42-1.932-8.361-2.847-8.361z"></path>
<path fill="#fff" style="fill: var(--color2, #fff)" d="M13.155 17.081c0.206 5.419 1.933 8.361 2.846 8.361s2.641-2.94 2.847-8.361h-5.693z"></path>
<path fill="#fff" style="fill: var(--color2, #fff)" d="M21.009 14.921h5.46c-0.455-4.459-3.695-8.094-7.951-9.138 1.509 1.885 2.353 5.45 2.492 9.138z"></path>
<path fill="#fff" style="fill: var(--color2, #fff)" d="M10.994 14.92c0.138-3.688 0.982-7.253 2.492-9.138-4.257 1.044-7.497 4.679-7.952 9.138h5.46z"></path>
<path fill="#fff" style="fill: var(--color2, #fff)" d="M21.008 17.081c-0.138 3.688-0.982 7.253-2.492 9.138 4.257-1.044 7.497-4.679 7.952-9.138h-5.46z"></path>
<path fill="#fff" style="fill: var(--color2, #fff)" d="M10.994 17.081h-5.46c0.455 4.459 3.695 8.095 7.952 9.138-1.51-1.884-2.355-5.45-2.492-9.138z"></path>
</symbol>
<symbol id="icon-social2" viewBox="0 0 32 32">
<path fill="#103488" style="fill: var(--color1, #103488)" d="M29.008 1.284h-26.184c-0.897 0-1.624 0.727-1.624 1.624v26.184c0 0.897 0.727 1.624 1.624 1.624h26.184c0.897 0 1.624-0.727 1.624-1.624v-26.184c0-0.897-0.727-1.624-1.624-1.624z"></path>
<path fill="#fff" style="fill: var(--color2, #fff)" d="M21.506 30.715v-11.397h3.825l0.572-4.441h-4.397v-2.835c0-1.286 0.358-2.164 2.201-2.164h2.353v-3.979c-1.139-0.119-2.284-0.175-3.429-0.169-3.387 0-5.72 2.064-5.72 5.872v3.275h-3.825v4.441h3.825v11.397h4.596z"></path>
</symbol>
<symbol id="icon-social3" viewBox="0 0 34 32">
<path fill="#fff" style="fill: var(--color2, #fff)" d="M25.805 0.085h-16.911c-4.12 0-7.461 3.34-7.461 7.461v16.911c0 4.12 3.34 7.461 7.461 7.461h16.911c4.12 0 7.46-3.34 7.46-7.461v-16.911c0-4.12-3.34-7.461-7.46-7.461z"></path>
<path fill="#103488" style="fill: var(--color1, #103488)" d="M25.805 0.085h-16.911c-4.12 0-7.461 3.34-7.461 7.461v16.911c0 4.12 3.34 7.461 7.461 7.461h16.911c4.12 0 7.46-3.34 7.46-7.461v-16.911c0-4.12-3.34-7.461-7.46-7.461z"></path>
<path fill="#fff" style="fill: var(--color2, #fff)" d="M24.401 27.152h3.64c0.132 0 0.258-0.052 0.352-0.146s0.146-0.22 0.146-0.352l0.002-7.69c0-4.019-0.866-7.108-5.563-7.108-1.785-0.066-3.469 0.854-4.378 2.391-0.004 0.007-0.011 0.013-0.019 0.017s-0.017 0.004-0.025 0.002c-0.008-0.002-0.016-0.007-0.021-0.014s-0.008-0.015-0.008-0.024v-1.502c0-0.132-0.052-0.258-0.146-0.352s-0.22-0.146-0.352-0.146h-3.454c-0.132 0-0.258 0.052-0.352 0.146s-0.146 0.22-0.146 0.352v13.929c0 0.132 0.052 0.258 0.146 0.352s0.22 0.146 0.352 0.146h3.639c0.132 0 0.258-0.052 0.352-0.146s0.146-0.22 0.146-0.352v-6.885c0-1.947 0.369-3.832 2.783-3.832 2.379 0 2.41 2.228 2.41 3.958v6.76c0 0.132 0.052 0.258 0.146 0.352s0.22 0.146 0.352 0.146zM6.158 7.498c0 1.475 1.214 2.689 2.69 2.689s2.689-1.215 2.689-2.69c-0-1.475-1.214-2.689-2.689-2.689s-2.689 1.214-2.689 2.689zM7.023 27.152h3.644c0.132 0 0.258-0.052 0.352-0.146s0.146-0.22 0.146-0.352v-13.93c0-0.132-0.052-0.258-0.146-0.352s-0.22-0.146-0.352-0.146h-3.644c-0.132 0-0.258 0.052-0.352 0.146s-0.146 0.22-0.146 0.352v13.93c0 0.132 0.052 0.258 0.146 0.352s0.22 0.146 0.352 0.146z"></path>
</symbol>
<symbol id="icon-social4" viewBox="0 0 42 32">
<path fill="#103488" style="fill: var(--color1, #103488)" d="M40.295 5.005c-0.229-0.951-0.676-1.818-1.295-2.515s-1.391-1.199-2.237-1.456c-3.098-0.949-15.563-0.949-15.563-0.949s-12.466 0.029-15.563 0.978c-0.846 0.257-1.617 0.759-2.237 1.456s-1.066 1.564-1.295 2.515c-0.937 6.187-1.3 15.613 0.026 21.552 0.229 0.951 0.675 1.818 1.295 2.515s1.391 1.199 2.237 1.456c3.097 0.95 15.563 0.95 15.563 0.95s12.465 0 15.563-0.95c0.846-0.257 1.617-0.759 2.237-1.456s1.066-1.564 1.295-2.515c0.988-6.195 1.292-15.616-0.026-21.58z"></path>
<path fill="#fff" style="fill: var(--color2, #fff)" d="M17.233 22.529l10.341-6.733-10.341-6.733v13.466z"></path>
</symbol>
<symbol id="icon-social5" viewBox="0 0 34 32">
<path fill="#103488" style="fill: var(--color1, #103488)" d="M25.424 0.083h-16.911c-4.12 0-7.461 3.34-7.461 7.461v16.911c0 4.12 3.34 7.461 7.461 7.461h16.911c4.12 0 7.461-3.34 7.461-7.461v-16.911c0-4.12-3.34-7.461-7.461-7.461z"></path>
<path fill="#103488" style="fill: var(--color1, #103488)" d="M25.424 0.083h-16.911c-4.12 0-7.461 3.34-7.461 7.461v16.911c0 4.12 3.34 7.461 7.461 7.461h16.911c4.12 0 7.461-3.34 7.461-7.461v-16.911c0-4.12-3.34-7.461-7.461-7.461z"></path>
<path fill="#fff" style="fill: var(--color2, #fff)" d="M16.97 3.565c-3.377 0-3.801 0.015-5.127 0.075-1.324 0.061-2.227 0.27-3.018 0.578-0.818 0.318-1.512 0.742-2.203 1.434s-1.117 1.385-1.435 2.203c-0.308 0.791-0.518 1.695-0.578 3.018-0.059 1.326-0.075 1.75-0.075 5.127s0.015 3.8 0.075 5.126c0.061 1.324 0.27 2.227 0.578 3.018 0.318 0.818 0.743 1.512 1.434 2.203s1.385 1.118 2.202 1.435c0.791 0.308 1.695 0.517 3.018 0.578 1.326 0.060 1.75 0.075 5.127 0.075s3.8-0.015 5.126-0.075c1.324-0.061 2.228-0.27 3.020-0.578 0.818-0.318 1.51-0.744 2.201-1.435s1.116-1.385 1.435-2.202c0.306-0.791 0.516-1.695 0.578-3.018 0.060-1.326 0.075-1.749 0.075-5.126s-0.016-3.801-0.075-5.127c-0.062-1.324-0.272-2.227-0.578-3.018-0.319-0.818-0.744-1.512-1.435-2.203s-1.383-1.116-2.202-1.434c-0.793-0.308-1.697-0.517-3.020-0.578-1.326-0.060-1.749-0.075-5.127-0.075h0.004zM15.854 5.806c0.331-0 0.701 0 1.115 0 3.32 0 3.714 0.012 5.025 0.072 1.212 0.055 1.87 0.258 2.309 0.428 0.58 0.225 0.994 0.495 1.429 0.93s0.705 0.85 0.931 1.43c0.17 0.438 0.373 1.096 0.428 2.308 0.060 1.311 0.072 1.704 0.072 5.023s-0.013 3.712-0.072 5.023c-0.055 1.212-0.258 1.87-0.428 2.308-0.225 0.58-0.495 0.994-0.931 1.428s-0.848 0.705-1.429 0.93c-0.438 0.171-1.096 0.373-2.309 0.429-1.311 0.060-1.704 0.072-5.025 0.072s-3.714-0.013-5.024-0.072c-1.212-0.056-1.87-0.259-2.309-0.429-0.58-0.225-0.995-0.495-1.43-0.93s-0.705-0.849-0.93-1.429c-0.17-0.438-0.373-1.096-0.428-2.308-0.060-1.311-0.072-1.704-0.072-5.025s0.012-3.712 0.072-5.023c0.055-1.212 0.258-1.87 0.428-2.309 0.225-0.58 0.495-0.995 0.931-1.43s0.85-0.705 1.43-0.93c0.438-0.171 1.097-0.373 2.309-0.429 1.147-0.052 1.592-0.067 3.909-0.070v0.003zM23.607 7.87c-0.824 0-1.492 0.668-1.492 1.492s0.668 1.492 1.492 1.492c0.824 0 1.492-0.668 1.492-1.492s-0.668-1.492-1.492-1.492v0zM16.97 9.614c-3.526 0-6.386 2.859-6.386 6.386s2.859 6.384 6.386 6.384c3.527 0 6.385-2.858 6.385-6.384s-2.859-6.386-6.385-6.386h0zM16.97 11.854c2.289 0 4.145 1.856 4.145 4.145s-1.856 4.145-4.145 4.145-4.145-1.856-4.145-4.145c0-2.289 1.856-4.145 4.145-4.145z"></path>
</symbol>
</defs>
</svg>
