<svg width="21" height="20" viewBox="0 0 21 20" fill="none" xmlns="http://www.w3.org/2000/svg">
<g id="Frame 100">
<g id="skill-icons:linkedin" clip-path="url(#clip0_61_28)">
<g id="Group">
<path id="Vector" d="M16.128 0.0530415H5.55873C2.98349 0.0530415 0.895844 2.14069 0.895844 4.71593V15.2851C0.895844 17.8604 2.98349 19.948 5.55873 19.948H16.128C18.7032 19.948 20.7908 17.8604 20.7908 15.2851V4.71593C20.7908 2.14069 18.7032 0.0530415 16.128 0.0530415Z" fill="white"/>
<path id="Vector_2" d="M16.128 0.0530415H5.55873C2.98349 0.0530415 0.895844 2.14069 0.895844 4.71593V15.2851C0.895844 17.8604 2.98349 19.948 5.55873 19.948H16.128C18.7032 19.948 20.7908 17.8604 20.7908 15.2851V4.71593C20.7908 2.14069 18.7032 0.0530415 16.128 0.0530415Z" fill="#103488"/>
<path id="Vector_3" d="M15.2505 16.9699H17.5252C17.6076 16.9699 17.6867 16.9372 17.745 16.8789C17.8033 16.8206 17.8361 16.7416 17.8361 16.6592L17.8372 11.8531C17.8372 9.34115 17.296 7.41032 14.3604 7.41032C13.2445 7.36882 12.1922 7.94407 11.6243 8.90462C11.6216 8.90929 11.6173 8.91292 11.6123 8.91496C11.6073 8.91699 11.6017 8.91733 11.5965 8.91591C11.5912 8.91449 11.5866 8.9114 11.5833 8.9071C11.58 8.9028 11.5781 8.89754 11.5781 8.89211V7.95308C11.5781 7.87064 11.5453 7.79157 11.487 7.73327C11.4287 7.67497 11.3497 7.64222 11.2672 7.64222H9.10854C9.0261 7.64222 8.94703 7.67497 8.88873 7.73327C8.83044 7.79157 8.79769 7.87064 8.79769 7.95308V16.6587C8.79769 16.7411 8.83044 16.8202 8.88873 16.8785C8.94703 16.9368 9.0261 16.9696 9.10854 16.9696H11.3831C11.4655 16.9696 11.5446 16.9368 11.6029 16.8785C11.6612 16.8202 11.694 16.7411 11.694 16.6587V12.3554C11.694 11.1386 11.9248 9.96022 13.4333 9.96022C14.9204 9.96022 14.9396 11.3526 14.9396 12.4342V16.6591C14.9396 16.7415 14.9724 16.8206 15.0307 16.8789C15.089 16.9372 15.1681 16.9699 15.2505 16.9699ZM3.84857 4.68657C3.84857 5.60858 4.60761 6.36723 5.5297 6.36723C6.45155 6.36716 7.21013 5.60804 7.21013 4.68618C7.20997 3.76433 6.45132 3.00576 5.52939 3.00576C4.60722 3.00576 3.84857 3.76456 3.84857 4.68657ZM4.38939 16.9699H6.66698C6.74942 16.9699 6.82849 16.9372 6.88679 16.8789C6.94509 16.8206 6.97784 16.7415 6.97784 16.6591V7.95308C6.97784 7.87064 6.94509 7.79157 6.88679 7.73327C6.82849 7.67497 6.74942 7.64222 6.66698 7.64222H4.38939C4.30694 7.64222 4.22788 7.67497 4.16958 7.73327C4.11128 7.79157 4.07853 7.87064 4.07853 7.95308V16.6591C4.07853 16.7415 4.11128 16.8206 4.16958 16.8789C4.22788 16.9372 4.30694 16.9699 4.38939 16.9699Z" fill="white"/>
</g>
</g>
</g>
<defs>
<clipPath id="clip0_61_28">
<rect width="19.895" height="19.895" fill="white" transform="translate(0.894989 0.0525017)"/>
</clipPath>
</defs>
</svg>
