<svg width="20" height="20" viewBox="0 0 20 20" fill="none" xmlns="http://www.w3.org/2000/svg">
<g id="devicon:facebook" clip-path="url(#clip0_61_25)">
<path id="Vector" d="M18.1301 0.802706H1.76489C1.20435 0.802706 0.749939 1.25712 0.749939 1.81766V18.1828C0.749939 18.7434 1.20435 19.1978 1.76489 19.1978H18.1301C18.6906 19.1978 19.145 18.7434 19.145 18.1828V1.81766C19.145 1.25712 18.6906 0.802706 18.1301 0.802706Z" fill="#103488"/>
<path id="Vector_2" d="M13.441 19.1969V12.0735H15.8315L16.189 9.29758H13.441V7.52568C13.441 6.72211 13.6648 6.17344 14.8165 6.17344H16.2869V3.68657C15.5749 3.61236 14.8594 3.57708 14.1435 3.58087C12.0266 3.58087 10.5686 4.87094 10.5686 7.25057V9.29758H8.17813V12.0735H10.5686V19.1969H13.441Z" fill="white"/>
</g>
<defs>
<clipPath id="clip0_61_25">
<rect width="19.895" height="19.895" fill="white" transform="translate(0 0.0525017)"/>
</clipPath>
</defs>
</svg>
