<svg width="14" height="14" viewBox="0 0 14 14" fill="none" xmlns="http://www.w3.org/2000/svg">
<g id="Group">
<path id="Vector" d="M7.00075 1.09995C6.42954 1.09995 5.35034 2.93769 5.22168 6.32537H8.77981C8.65115 2.93769 7.57195 1.09995 7.00075 1.09995Z" fill="white"/>
<path id="Vector_2" d="M5.22168 7.67562C5.35034 11.0627 6.42954 12.901 7.00075 12.901C7.57195 12.901 8.65115 11.0633 8.77981 7.67562H5.22168Z" fill="white"/>
<path id="Vector_3" d="M10.1305 6.32539H13.5428C13.2583 3.53828 11.2335 1.26688 8.57324 0.614189C9.51657 1.79203 10.044 4.02017 10.1305 6.32539Z" fill="white"/>
<path id="Vector_4" d="M3.87126 6.32518C3.95778 4.01996 4.48518 1.79182 5.42906 0.613979C2.76823 1.26667 0.743479 3.53807 0.458984 6.32518H3.87126Z" fill="white"/>
<path id="Vector_5" d="M10.1301 7.67562C10.0436 9.98084 9.51614 12.209 8.57227 13.3868C11.2331 12.7341 13.2578 10.4622 13.5423 7.67562H10.1301Z" fill="white"/>
<path id="Vector_6" d="M3.87126 7.67562H0.458984C0.743479 10.4627 2.76823 12.7347 5.42906 13.3868C4.48518 12.209 3.95722 9.98029 3.87126 7.67562Z" fill="white"/>
</g>
</svg>
