<svg width="21" height="20" viewBox="0 0 21 20" fill="none" xmlns="http://www.w3.org/2000/svg">
<g clip-path="url(#clip0_61_39)">
<path d="M15.89 0.0516739H5.32079C2.74554 0.0516739 0.657898 2.13932 0.657898 4.71456V15.2838C0.657898 17.859 2.74554 19.9467 5.32079 19.9467H15.89C18.4652 19.9467 20.5529 17.859 20.5529 15.2838V4.71456C20.5529 2.13932 18.4652 0.0516739 15.89 0.0516739Z" fill="#103488"/>
<path d="M15.89 0.0516739H5.32079C2.74554 0.0516739 0.657898 2.13932 0.657898 4.71456V15.2838C0.657898 17.859 2.74554 19.9467 5.32079 19.9467H15.89C18.4652 19.9467 20.5529 17.859 20.5529 15.2838V4.71456C20.5529 2.13932 18.4652 0.0516739 15.89 0.0516739Z" fill="url(#paint0_radial_61_39)"/>
<path d="M10.6062 2.22797C8.49565 2.22797 8.23072 2.23722 7.40181 2.27491C6.57446 2.31283 6.00971 2.44378 5.5156 2.63597C5.00439 2.83446 4.57082 3.10001 4.13888 3.5321C3.70655 3.96412 3.441 4.39769 3.24189 4.90867C3.04916 5.40293 2.91806 5.96792 2.88083 6.79488C2.84376 7.62387 2.83405 7.88887 2.83405 9.99953C2.83405 12.1102 2.84337 12.3743 2.88099 13.2032C2.91907 14.0305 3.05001 14.5953 3.24205 15.0894C3.44069 15.6006 3.70624 16.0342 4.13833 16.4661C4.57019 16.8984 5.00377 17.1646 5.51459 17.3631C6.00908 17.5553 6.57392 17.6862 7.40111 17.7241C8.2301 17.7618 8.49479 17.7711 10.6053 17.7711C12.7161 17.7711 12.9802 17.7618 13.8091 17.7241C14.6364 17.6862 15.2018 17.5553 15.6963 17.3631C16.2073 17.1646 16.6402 16.8984 17.072 16.4661C17.5043 16.0342 17.7698 15.6006 17.969 15.0896C18.16 14.5953 18.2912 14.0304 18.3301 13.2033C18.3673 12.3744 18.377 12.1102 18.377 9.99953C18.377 7.88887 18.3673 7.62402 18.3301 6.79504C18.2912 5.96768 18.16 5.40301 17.969 4.9089C17.7698 4.39769 17.5043 3.96412 17.072 3.5321C16.6398 3.09985 16.2074 2.8343 15.6958 2.63605C15.2004 2.44378 14.6354 2.31276 13.808 2.27491C12.979 2.23722 12.7151 2.22797 10.6038 2.22797H10.6062ZM9.90905 3.62847C10.116 3.62816 10.3469 3.62847 10.6062 3.62847C12.6813 3.62847 12.9272 3.63593 13.7466 3.67316C14.5043 3.70782 14.9156 3.83441 15.1895 3.9408C15.5522 4.08162 15.8108 4.25003 16.0826 4.52211C16.3546 4.79411 16.523 5.05314 16.6642 5.41583C16.7706 5.68939 16.8973 6.10066 16.9318 6.85837C16.9691 7.67764 16.9771 7.92369 16.9771 9.99774C16.9771 12.0718 16.9691 12.3179 16.9318 13.1371C16.8972 13.8948 16.7706 14.3061 16.6642 14.5797C16.5234 14.9424 16.3546 15.2007 16.0826 15.4725C15.8106 15.7445 15.5524 15.9129 15.1895 16.0537C14.9159 16.1606 14.5043 16.2869 13.7466 16.3216C12.9273 16.3588 12.6813 16.3669 10.6062 16.3669C8.53109 16.3669 8.28512 16.3588 7.46593 16.3216C6.70821 16.2866 6.29694 16.16 6.02276 16.0536C5.66014 15.9127 5.40104 15.7444 5.12904 15.4724C4.85704 15.2004 4.68871 14.942 4.5475 14.5791C4.44111 14.3055 4.31436 13.8942 4.27985 13.1365C4.24263 12.3172 4.23517 12.0712 4.23517 9.9958C4.23517 7.9205 4.24263 7.6757 4.27985 6.85643C4.31451 6.09871 4.44111 5.68745 4.5475 5.4135C4.6884 5.05081 4.85704 4.79178 5.12912 4.51978C5.40112 4.24778 5.66014 4.07937 6.02284 3.93824C6.29678 3.83138 6.70821 3.7051 7.46593 3.67028C8.18285 3.63787 8.46068 3.62816 9.90905 3.62653V3.62847ZM14.7546 4.91885C14.2398 4.91885 13.8221 5.33617 13.8221 5.85111C13.8221 6.36597 14.2398 6.78369 14.7546 6.78369C15.2695 6.78369 15.6872 6.36597 15.6872 5.85111C15.6872 5.33625 15.2695 4.91853 14.7546 4.91853V4.91885ZM10.6062 6.00849C8.40224 6.00849 6.61526 7.79546 6.61526 9.99953C6.61526 12.2036 8.40224 13.9897 10.6062 13.9897C12.8103 13.9897 14.5967 12.2036 14.5967 9.99953C14.5967 7.79554 12.8101 6.00849 10.6061 6.00849H10.6062ZM10.6062 7.40898C12.0369 7.40898 13.1968 8.56872 13.1968 9.99953C13.1968 11.4302 12.0369 12.5901 10.6062 12.5901C9.1755 12.5901 8.01576 11.4302 8.01576 9.99953C8.01576 8.56872 9.1755 7.40898 10.6062 7.40898Z" fill="white"/>
</g>
<defs>
<radialGradient id="paint0_radial_61_39" cx="0" cy="0" r="1" gradientUnits="userSpaceOnUse" gradientTransform="translate(-2.67459 1.48481) rotate(78.681) scale(8.81379 36.3307)">
<stop stop-color="#103488"/>
<stop offset="0.128" stop-color="#103488"/>
<stop offset="1" stop-color="#103488"/>
</radialGradient>
<clipPath id="clip0_61_39">
<rect width="19.895" height="19.895" fill="white" transform="translate(0.658752 0.0525017)"/>
</clipPath>
</defs>
</svg>
