<svg width="20" height="20" viewBox="0 0 20 20" fill="none" xmlns="http://www.w3.org/2000/svg">
<g id="Group">
<path id="Vector" d="M14.9379 20H5.06211C2.26597 20 0 17.7336 0 14.9376V5.06238C0 2.2664 2.26652 0 5.06211 0H14.9379C17.734 0 20 2.2664 20 5.06238V14.9376C20 17.7336 17.734 20 14.9379 20Z" fill="#103488"/>
<g id="Group_2">
<path id="Vector_2" d="M10.0007 4.09995C9.42954 4.09995 8.35034 5.93769 8.22168 9.32537H11.7798C11.6512 5.93769 10.572 4.09995 10.0007 4.09995Z" fill="white"/>
<path id="Vector_3" d="M8.22168 10.6756C8.35034 14.0627 9.42954 15.901 10.0007 15.901C10.572 15.901 11.6512 14.0633 11.7798 10.6756H8.22168Z" fill="white"/>
<path id="Vector_4" d="M13.1305 9.32539H16.5428C16.2583 6.53828 14.2335 4.26688 11.5732 3.61419C12.5166 4.79203 13.044 7.02017 13.1305 9.32539Z" fill="white"/>
<path id="Vector_5" d="M6.87126 9.32518C6.95778 7.01996 7.48518 4.79182 8.42906 3.61398C5.76823 4.26667 3.74348 6.53807 3.45898 9.32518H6.87126Z" fill="white"/>
<path id="Vector_6" d="M13.1301 10.6756C13.0436 12.9808 12.5161 15.209 11.5723 16.3868C14.2331 15.7341 16.2578 13.4622 16.5423 10.6756H13.1301Z" fill="white"/>
<path id="Vector_7" d="M6.87126 10.6756H3.45898C3.74348 13.4627 5.76823 15.7347 8.42906 16.3868C7.48518 15.209 6.95722 12.9803 6.87126 10.6756Z" fill="white"/>
</g>
</g>
</svg>
